<?xml version="1.0" encoding="utf-8"?>
<!-- Generator: Adobe Illustrator 26.5.0, SVG Export Plug-In . SVG Version: 6.00 Build 0)  -->
<svg version="1.1" id="Layer_1" xmlns="http://www.w3.org/2000/svg" xmlns:xlink="http://www.w3.org/1999/xlink" x="0px" y="0px"
	 viewBox="0 0 512 512" style="enable-background:new 0 0 512 512;" xml:space="preserve">
<style type="text/css">
	.st0{fill:#688A22;}
	.st1{fill:#658A2D;}
	.st2{fill:#FFFFFF;}
	.st3{fill:#0F0F89;}
</style>
<g id="XMLID_1_">
	<path id="XMLID_3_" class="st0" d="M0,267.48c138.45-57.79,412.12-33.39,512,0C374.53,242.65,180.67,231.43,0,267.48z"/>
	<path id="XMLID_4_" class="st1" d="M225.7,185h61.86c14.87,0,26.93,12.06,26.93,26.93v42.92c0,14.87-12.06,26.93-26.93,26.93H225.7
		c-14.87,0-26.93-12.06-26.93-26.93v-42.92C198.77,197.06,210.83,185,225.7,185z"/>
	<polygon id="XMLID_5_" class="st1" points="198.77,185 287.7,185 314.63,229.19 314.63,281.93 221.91,281.65 198.77,244.06 	"/>
	<path id="XMLID_6_" class="st2" d="M228.65,189.63h56.11c13.47,0,24.41,10.94,24.41,24.41v38.86c0,13.47-10.94,24.41-24.41,24.41
		h-56.11c-13.47,0-24.41-10.94-24.41-24.41v-38.86C204.24,200.57,215.18,189.63,228.65,189.63z"/>
	<path id="XMLID_26_" class="st3" d="M15.43,324.43c0,0.56,0.14,0.98,0.28,1.12c0.14,0.14,0.56,0.42,1.12,0.56v0.7H7.29v-0.7
		c0.56-0.14,0.98-0.28,1.12-0.56c0.14-0.28,0.28-0.56,0.28-1.12v-25.39c0-0.56-0.14-0.98-0.28-1.12c-0.14-0.28-0.56-0.42-1.12-0.56
		v-0.7h27.21c0.56,0,0.98-0.14,1.12-0.28c0.14-0.14,0.42-0.56,0.56-1.12h0.7v8.28h-0.7c-0.14-0.56-0.28-0.84-0.42-1.12
		c-0.14-0.14-0.56-0.28-0.98-0.28h-0.28H15.43v6.59h12.2c0.56,0,0.98-0.14,1.12-0.28c0.14-0.14,0.42-0.56,0.56-1.12h0.7v7.72h-0.7
		c-0.14-0.56-0.28-0.84-0.56-1.12c-0.28-0.14-0.56-0.28-1.26-0.28h-12.2v10.8H15.43z M51.34,324.43c0,0.56,0.14,0.98,0.28,1.12
		c0.14,0.28,0.56,0.42,1.12,0.56v0.7h-8.84v-0.7c0.56-0.14,0.84-0.28,1.12-0.56c0.14-0.28,0.28-0.56,0.28-1.12v-20.06
		c0-0.56-0.14-0.98-0.28-1.12c-0.14-0.28-0.56-0.42-1.12-0.56v-0.7h8.84v0.7c-0.56,0.14-0.98,0.28-1.12,0.56
		c-0.14,0.28-0.28,0.56-0.28,1.12V324.43z M84.73,302.13c0.56,0,0.98-0.14,1.26-0.28c0.14-0.14,0.28-0.56,0.42-1.12h0.7v7.72h-0.84
		c-0.14-0.56-0.28-0.98-0.56-1.12c-0.28-0.14-0.56-0.28-1.12-0.28H69.44v5.05h9.4c0.56,0,0.98-0.14,1.12-0.28
		c0.14-0.14,0.28-0.56,0.42-1.12h0.7v7.15h-0.7c-0.14-0.56-0.28-0.84-0.56-1.12c-0.28-0.14-0.56-0.28-1.12-0.28h-9.26v8.14
		c0,0.56,0.14,0.98,0.28,1.12c0.14,0.28,0.56,0.42,1.12,0.56v0.7H62v-0.84c0.56-0.14,0.98-0.28,1.12-0.56
		c0.14-0.28,0.28-0.56,0.28-1.12v-20.06c0-0.56-0.14-0.98-0.28-1.12c-0.14-0.28-0.56-0.42-1.12-0.56v-0.7h22.72V302.13z
		 M95.95,307.04c-0.56,0-0.98,0.14-1.12,0.28c-0.14,0.14-0.42,0.56-0.56,1.12h-0.7v-7.72h0.7c0.14,0.56,0.28,0.98,0.56,1.12
		c0.28,0.14,0.56,0.28,1.12,0.28h20.48c0.56,0,0.98-0.14,1.26-0.28c0.28-0.14,0.42-0.56,0.56-1.12h0.7v7.72h-0.7
		c-0.14-0.56-0.28-0.98-0.56-1.12c-0.28-0.14-0.7-0.28-1.26-0.28h-7.15v17.53c0,0.56,0.14,0.98,0.28,1.12
		c0.14,0.28,0.56,0.42,1.12,0.56v0.7h-8.84v-0.84c0.56-0.14,0.98-0.28,1.12-0.56c0.14-0.28,0.28-0.56,0.28-1.12V306.9h-7.29V307.04z
		 M133.82,324.43c0,0.56,0.14,0.98,0.28,1.12c0.14,0.28,0.56,0.42,1.12,0.56v0.7h-8.84v-0.7c0.56-0.14,0.84-0.28,1.12-0.56
		c0.14-0.28,0.28-0.56,0.28-1.12v-20.06c0-0.56-0.14-0.98-0.28-1.12c-0.14-0.28-0.56-0.42-1.12-0.56v-0.7h8.84v0.7
		c-0.56,0.14-0.98,0.28-1.12,0.56c-0.14,0.28-0.28,0.56-0.28,1.12v6.73h13.89v-6.73c0-0.56-0.14-0.98-0.28-1.12
		c-0.14-0.28-0.56-0.42-1.12-0.56v-0.7h8.84v0.7c-0.56,0.14-0.98,0.28-1.12,0.56c-0.14,0.28-0.28,0.56-0.28,1.12v20.06
		c0,0.56,0.14,0.98,0.28,1.12c0.14,0.28,0.56,0.42,1.12,0.56v0.7h-8.84v-0.7c0.56-0.14,0.98-0.28,1.12-0.56
		c0.14-0.28,0.28-0.56,0.28-1.12v-8.42h-13.89V324.43z M182.64,301.99c-0.56,0-0.98,0.14-1.12,0.28c-0.14,0.14-0.42,0.56-0.56,1.12
		h-0.7v-8.14h0.7c0.14,0.56,0.28,0.98,0.56,1.12s0.56,0.28,1.12,0.28h25.39c0.56,0,0.98-0.14,1.12-0.28
		c0.14-0.14,0.42-0.56,0.56-1.12h0.7v8.28h-0.7c-0.14-0.56-0.28-0.98-0.56-1.12c-0.28-0.14-0.56-0.28-1.12-0.28h-9.4v22.44
		c0,0.56,0.14,0.98,0.28,1.12c0.14,0.14,0.56,0.42,1.12,0.56v0.7h-9.4v-0.84c0.56-0.14,0.98-0.28,1.12-0.56
		c0.14-0.28,0.28-0.56,0.28-1.12v-22.44L182.64,301.99L182.64,301.99z M225,324.43c0,0.56,0.14,0.98,0.28,1.12
		c0.14,0.28,0.56,0.42,1.12,0.56v0.7h-8.84v-0.7c0.56-0.14,0.84-0.28,1.12-0.56c0.14-0.28,0.28-0.56,0.28-1.12v-20.06
		c0-0.56-0.14-0.98-0.28-1.12c-0.14-0.28-0.56-0.42-1.12-0.56v-0.7h8.84v0.7c-0.56,0.14-0.98,0.28-1.12,0.56
		c-0.14,0.28-0.28,0.56-0.28,1.12v6.73h13.89v-6.73c0-0.56-0.14-0.98-0.28-1.12c-0.14-0.28-0.56-0.42-1.12-0.56v-0.7h8.84v0.7
		c-0.56,0.14-0.98,0.28-1.12,0.56c-0.14,0.28-0.28,0.56-0.28,1.12v20.06c0,0.56,0.14,0.98,0.28,1.12c0.14,0.28,0.56,0.42,1.12,0.56
		v0.7h-8.84v-0.7c0.56-0.14,0.98-0.28,1.12-0.56c0.14-0.28,0.28-0.56,0.28-1.12v-8.42H225V324.43z M262.87,324.43
		c0,0.56,0.14,0.98,0.28,1.12c0.14,0.28,0.56,0.42,1.12,0.56v0.7h-8.84v-0.7c0.56-0.14,0.84-0.28,1.12-0.56
		c0.14-0.28,0.28-0.56,0.28-1.12v-20.06c0-0.56-0.14-0.98-0.28-1.12c-0.14-0.28-0.56-0.42-1.12-0.56v-0.7h8.84v0.7
		c-0.56,0.14-0.98,0.28-1.12,0.56s-0.28,0.56-0.28,1.12V324.43z M280.97,324.43c0,0.56,0.14,0.98,0.28,1.12
		c0.14,0.28,0.56,0.42,1.12,0.56v0.7h-8.84v-0.7c0.56-0.14,0.84-0.28,1.12-0.56c0.14-0.28,0.28-0.56,0.28-1.12v-20.06
		c0-0.56-0.14-0.98-0.28-1.12c-0.14-0.28-0.56-0.42-1.12-0.56v-0.7h16.55c3.37,0,5.89,0.7,7.72,1.96s2.67,3.09,2.67,5.33
		c0,1.96-0.56,3.51-1.68,4.63c-1.12,1.26-2.95,2.1-5.19,2.52l4.91,6.73c0.42,0.56,0.84,0.98,1.4,1.4c0.56,0.42,1.26,0.84,2.24,1.4
		v0.7h-10.38v-0.56c0.42-0.14,0.7-0.14,0.98-0.42c0.28-0.14,0.28-0.42,0.28-0.56c0,0-0.14-0.28-0.28-0.56
		c-0.14-0.28-0.28-0.56-0.42-0.84l-4.91-7.01h-6.31v7.72H280.97z M287.84,306.62h-6.87v5.61h7.15c2.24,0,3.79-0.28,4.91-0.7
		c0.98-0.42,1.54-1.26,1.54-2.24s-0.56-1.68-1.54-2.1C291.91,306.76,290.23,306.62,287.84,306.62z M317.16,322.19h5.75
		c2.95,0,5.05-0.7,6.59-1.96c1.54-1.26,2.24-3.23,2.24-5.75c0-2.52-0.7-4.49-2.24-5.75s-3.65-1.96-6.59-1.96h-5.75V322.19z
		 M322.49,302.13c5.33,0,9.26,0.98,11.78,3.09c2.52,1.96,3.79,5.19,3.79,9.4s-1.26,7.43-3.79,9.4c-2.52,1.96-6.45,3.09-11.78,3.09
		h-12.76v-0.98c0.56-0.14,0.84-0.28,1.12-0.56c0.14-0.28,0.28-0.56,0.28-1.12v-20.06c0-0.56-0.14-0.98-0.28-1.12
		c-0.14-0.28-0.56-0.42-1.12-0.56v-0.7h12.76V302.13z M364.15,326.96v-0.84c0.56-0.14,0.98-0.28,1.12-0.56
		c0.14-0.28,0.28-0.56,0.28-1.12v-25.39c0-0.56-0.14-0.98-0.28-1.12c-0.14-0.28-0.56-0.42-1.12-0.56v-0.7h20.48
		c3.37,0,6.03,0.7,8,2.1c1.96,1.4,2.81,3.23,2.81,5.61c0,1.4-0.28,2.67-0.98,3.65c-0.7,0.98-1.68,1.96-3.09,2.67
		c1.68,0.84,2.95,1.96,3.79,3.09c0.84,1.26,1.26,2.67,1.26,4.35c0,2.81-1.12,4.91-3.23,6.59c-2.1,1.54-5.19,2.38-9.26,2.38h-19.78
		V326.96z M382.11,313.49h-9.96v8.28h9.68c3.09,0,5.19-0.28,6.31-0.98c1.12-0.7,1.68-1.68,1.68-3.23c0-1.4-0.56-2.52-1.82-3.09
		C386.74,313.91,384.77,313.49,382.11,313.49z M382.81,301.57h-10.66v6.59h11.5c1.82,0,3.23-0.28,4.07-0.84
		c0.84-0.56,1.26-1.4,1.26-2.52c0-1.26-0.42-2.1-1.4-2.67C386.74,301.85,385.19,301.57,382.81,301.57z M415.63,309.14l-3.79,8h7.86
		L415.63,309.14z M412.55,305.22c0.14-0.14,0.14-0.28,0.14-0.42c0-0.14,0.14-0.28,0.14-0.42c0-0.42-0.14-0.7-0.42-0.84
		c-0.28-0.28-0.7-0.42-1.12-0.56v-0.7h9.54v0.7c-0.56,0.14-0.98,0.42-1.12,0.56c-0.28,0.14-0.28,0.42-0.28,0.7c0,0.14,0,0.28,0,0.42
		c0,0.14,0.14,0.42,0.28,0.7l9.12,18.1c0.56,1.12,0.98,1.82,1.4,2.24c0.42,0.28,0.84,0.56,1.4,0.7v0.7h-9.68v-0.98
		c0.56-0.14,0.98-0.42,1.12-0.56c0.28-0.14,0.28-0.42,0.28-0.7c0-0.14,0-0.28,0-0.42c0-0.14-0.14-0.42-0.28-0.56l-1.54-3.09h-11.5
		l-1.4,3.09c-0.14,0.28-0.14,0.42-0.28,0.56c0,0.14,0,0.28,0,0.42c0,0.28,0.14,0.56,0.28,0.84c0.28,0.14,0.56,0.42,1.12,0.56v0.7
		h-8.7v-0.84c0.98-0.28,1.82-1.12,2.52-2.52c0.14-0.14,0.14-0.28,0.14-0.42L412.55,305.22z M459.68,317.98v-13.47
		c0-0.56-0.14-0.98-0.28-1.26c-0.14-0.28-0.56-0.42-1.12-0.56v-0.7h8v0.7c-0.56,0.14-0.84,0.28-1.12,0.56
		c-0.14,0.28-0.28,0.56-0.28,1.26v19.92c0,0.56,0.14,0.98,0.28,1.12c0.14,0.28,0.56,0.42,1.12,0.56v0.7h-8.98v-0.7
		c0.42-0.14,0.7-0.14,0.84-0.42c0.14-0.14,0.28-0.28,0.28-0.56c0-0.14,0-0.28-0.14-0.42c0-0.14-0.14-0.28-0.28-0.42l-14.45-14.31
		v14.17c0,0.56,0.14,0.98,0.28,1.12c0.14,0.28,0.56,0.42,1.12,0.56v0.7h-8v-0.42c0.56-0.14,0.84-0.28,1.12-0.56
		c0.14-0.28,0.28-0.56,0.28-1.12v-20.06c0-0.56-0.14-0.98-0.28-1.12c-0.14-0.28-0.56-0.42-1.12-0.56v-0.7h9.68v0.7
		c-0.42,0.14-0.56,0.28-0.84,0.42c-0.14,0.14-0.28,0.28-0.28,0.42s0,0.14,0.14,0.28c0,0.14,0.14,0.28,0.42,0.42L459.68,317.98z
		 M482.82,324.43c0,0.56,0.14,0.98,0.28,1.12c0.14,0.28,0.56,0.42,1.12,0.56v0.7h-8.84v-0.7c0.56-0.14,0.84-0.28,1.12-0.56
		c0.14-0.28,0.28-0.56,0.28-1.12v-20.06c0-0.56-0.14-0.98-0.28-1.12c-0.14-0.28-0.56-0.42-1.12-0.56v-0.7h8.84v0.7
		c-0.56,0.14-0.98,0.28-1.12,0.56c-0.14,0.28-0.28,0.56-0.28,1.12v7.86l9.12-7.15c0.42-0.28,0.7-0.56,0.84-0.7
		c0.14-0.14,0.14-0.42,0.14-0.56c0-0.28-0.14-0.42-0.42-0.7c-0.28-0.14-0.56-0.28-0.98-0.42v-0.7h11.78v0.7
		c-1.68,0.98-3.37,2.1-4.77,3.23c-0.14,0.14-0.28,0.28-0.28,0.28l-7.43,5.75l9.68,11.22c0.42,0.56,0.98,0.98,1.54,1.54
		c0.56,0.42,1.4,0.98,2.24,1.4v0.7h-10.94v-0.7c0.42-0.14,0.7-0.14,0.84-0.42c0.14-0.14,0.28-0.42,0.28-0.7c0-0.14,0-0.28-0.14-0.56
		c-0.14-0.14-0.28-0.42-0.7-0.84l-7.15-8.28l-3.65,2.81L482.82,324.43L482.82,324.43z"/>
	<polygon id="XMLID_27_" class="st2" points="204.24,189.63 284.76,189.63 309.16,229.47 309.16,277.3 225.14,277.16 204.24,243.07 
			"/>
	<path id="XMLID_28_" class="st3" d="M230.89,193.14h51.48c12.34,0,22.44,10.1,22.44,22.44v35.77c0,12.34-10.1,22.44-22.44,22.44
		h-51.48c-12.34,0-22.44-10.1-22.44-22.44v-35.77C208.59,203.24,218.55,193.14,230.89,193.14z"/>
	<polygon id="XMLID_29_" class="st3" points="208.59,193.14 282.51,193.28 304.82,229.89 304.82,273.79 227.8,273.51 208.59,242.37 
			"/>
	<rect id="XMLID_30_" x="216.3" y="200.99" class="st2" width="29.18" height="16.55"/>
	<path id="XMLID_31_" class="st2" d="M219.67,220.35h20.9c8.14,2.52,12.62,19.36,0.56,23.71l-22.58-1.12
		C232.85,237.32,227.38,224.7,219.67,220.35z"/>
	<path id="XMLID_32_" class="st2" d="M267.64,221.47c9.4,7.15,11.22,14.31,0,21.46c8,7.86,9.54,15.15,0,21.46
		c36.05,6.31,32.54-19.08,18.8-21.46c12.2-2.24,12.2-12.62,5.33-18.66C286.72,219.79,278.02,218.25,267.64,221.47z"/>
	<polygon id="XMLID_33_" class="st2" points="262.73,199.31 265.96,199.31 250.53,264.54 247.16,264.54 	"/>
</g>
</svg>
